<svg width="21" height="20" viewBox="0 0 21 20" fill="none" xmlns="http://www.w3.org/2000/svg">
<g clip-path="url(#clip0_40_2034)">
<path d="M10.5 0C16.0231 0 20.5 4.4775 20.5 10C20.5 15.5232 16.0231 20 10.5 20C4.97681 20 0.5 15.5231 0.5 10C0.5 4.4775 4.97688 0 10.5 0Z" fill="#3B5998"/>
<path d="M11.7175 6.88422H13.0063V4.98047H11.4913V4.98733C9.65568 5.05235 9.27946 6.08421 9.2463 7.16797H9.24252V8.11861H7.99255V9.98296H9.24252V14.9804H11.1263V9.98296H12.6694L12.9675 8.11861H11.1269V7.54426C11.1269 7.17799 11.3706 6.88422 11.7175 6.88422Z" fill="white"/>
</g>
<defs>
<clipPath id="clip0_40_2034">
<rect width="20" height="20" fill="white" transform="translate(0.5)"/>
</clipPath>
</defs>
</svg>
