<svg width="21" height="20" viewBox="0 0 21 20" fill="none" xmlns="http://www.w3.org/2000/svg">
<g clip-path="url(#clip0_40_2001)">
<path d="M19.745 8.26113L11.5872 8.26074C11.227 8.26074 10.935 8.5527 10.935 8.91293V11.519C10.935 11.8791 11.227 12.1712 11.5872 12.1712H16.1812C15.6781 13.4767 14.7392 14.57 13.5413 15.2647L15.5002 18.6557C18.6425 16.8384 20.5002 13.6497 20.5002 10.0803C20.5002 9.57203 20.4627 9.20871 20.3878 8.79961C20.3309 8.48879 20.061 8.26113 19.745 8.26113Z" fill="#167EE6"/>
<path d="M10.5002 16.0871C8.25198 16.0871 6.28932 14.8587 5.23522 13.041L1.84436 14.9955C3.56995 17.9862 6.80252 20.0001 10.5002 20.0001C12.3141 20.0001 14.0257 19.5117 15.5002 18.6606V18.6559L13.5413 15.2649C12.6453 15.7846 11.6084 16.0871 10.5002 16.0871Z" fill="#12B347"/>
<path d="M15.5 18.6603V18.6557L13.5411 15.2646C12.6451 15.7843 11.6083 16.0868 10.5 16.0868V19.9998C12.3139 19.9998 14.0256 19.5114 15.5 18.6603Z" fill="#0F993E"/>
<path d="M4.41305 10.0002C4.41305 8.89207 4.71547 7.85531 5.23504 6.95934L1.84418 5.00488C0.988359 6.47469 0.5 8.18164 0.5 10.0002C0.5 11.8188 0.988359 13.5258 1.84418 14.9956L5.23504 13.0411C4.71547 12.1452 4.41305 11.1084 4.41305 10.0002Z" fill="#FFD500"/>
<path d="M10.5002 3.91305C11.9662 3.91305 13.3129 4.43398 14.3647 5.30051C14.6242 5.51426 15.0014 5.49883 15.239 5.26113L17.0855 3.41465C17.3552 3.14496 17.336 2.70352 17.0479 2.45359C15.2856 0.924727 12.9926 0 10.5002 0C6.80252 0 3.56995 2.01395 1.84436 5.00465L5.23522 6.9591C6.28932 5.14141 8.25198 3.91305 10.5002 3.91305Z" fill="#FF4B26"/>
<path d="M14.3645 5.30051C14.624 5.51426 15.0012 5.49883 15.2389 5.26113L17.0854 3.41465C17.355 3.14496 17.3358 2.70352 17.0477 2.45359C15.2854 0.924688 12.9925 0 10.5 0V3.91305C11.966 3.91305 13.3127 4.43398 14.3645 5.30051Z" fill="#D93F21"/>
</g>
<defs>
<clipPath id="clip0_40_2001">
<rect width="20" height="20" fill="white" transform="translate(0.5)"/>
</clipPath>
</defs>
</svg>
