<svg width="59" height="55" viewBox="0 0 59 55" fill="none" xmlns="http://www.w3.org/2000/svg">
<path d="M0 30.0528C0 13.4551 13.4551 0 30.0528 0H54.095V24.5431C54.095 41.1408 40.6399 54.5958 24.0422 54.5958H0V30.0528Z" fill="url(#paint0_linear_457_45639)"/>
<path d="M4.25747 30.0528C4.25747 13.4551 17.7126 0 34.3102 0H58.3525V24.5431C58.3525 41.1408 44.8974 54.5958 28.2997 54.5958H4.25747V30.0528Z" fill="url(#paint1_linear_457_45639)"/>
<path d="M1.75308 30.0528C1.75308 13.4551 15.2082 0 31.8058 0H55.8481V24.5431C55.8481 41.1408 42.393 54.5958 25.7953 54.5958H1.75308V30.0528Z" fill="url(#paint2_linear_457_45639)"/>
<path fill-rule="evenodd" clip-rule="evenodd" d="M17.6668 26.2117C17.6762 23.295 19.934 21.145 22.7558 21.3605C23.3805 21.4082 24.0687 21.7457 24.5634 22.1471C25.9396 23.2643 27.2716 24.4434 28.536 25.6825C29.1878 26.3215 29.5619 26.1662 30.1163 25.6052C31.2057 24.503 32.3888 23.4917 33.4837 22.3941C35.2169 20.6566 37.8024 21.286 39.3147 22.5318C41.138 24.0341 41.4804 26.4271 40.0666 28.1967C39.2287 29.2457 38.178 30.131 37.2049 31.0717C34.7878 33.4081 32.3571 35.7309 29.9402 38.0674C29.5701 38.4255 29.2758 38.7618 28.7423 38.2472C25.4166 35.0392 22.0678 31.8543 18.7394 28.6494C18.0223 27.9589 17.4776 27.1673 17.6668 26.2117Z" fill="white"/>
<path fill-rule="evenodd" clip-rule="evenodd" d="M19.6952 35.478C18.9142 35.478 18.1315 35.5079 17.3522 35.4727C13.8073 35.3126 11.9986 33.4146 12 29.8817C12.0012 27.5507 13.2251 25.7597 15.4111 24.8897C16.478 24.4653 16.7746 24.6587 16.6847 25.756C16.5686 27.1711 17.1242 28.4021 18.0701 29.3306C21.6009 32.7971 25.2212 36.1745 28.7948 39.5987C29.1722 39.9603 29.4183 39.9089 29.765 39.5734C33.3468 36.1071 36.9552 32.6675 40.519 29.1829C41.5605 28.1645 42.0247 26.8524 41.8356 25.3987C41.7232 24.5319 42.1218 24.5302 42.7303 24.7404C44.8291 25.4653 46.7749 27.0776 46.5882 30.618C46.4796 32.6766 44.8702 34.7351 42.6286 35.3256C42.0141 35.4874 41.34 35.4515 40.6926 35.4621C39.1948 35.4869 37.6962 35.4793 36.1982 35.4948C34.9643 35.5073 34.8663 35.6273 34.839 36.8075C34.7928 38.7961 34.8082 40.7916 34.6335 42.77C34.4726 44.5949 32.439 46.6907 30.7326 47.0338C28.1696 47.5493 25.8093 46.6214 24.5921 44.7292C23.9525 43.735 23.6702 42.7062 23.6949 41.543C23.7302 39.8702 23.68 38.1957 23.713 36.5232C23.7285 35.7353 23.4483 35.4241 22.6244 35.478C21.6519 35.5415 20.672 35.4928 19.6956 35.4928C19.6952 35.488 19.6952 35.483 19.6952 35.478Z" fill="white"/>
<path fill-rule="evenodd" clip-rule="evenodd" d="M22.9248 15.1703C22.8214 12.0643 25.4589 9.09774 28.9593 9.0027C32.6976 8.90149 35.6203 11.6546 35.6465 15.1549C35.6719 18.5557 32.7331 21.5968 29.147 21.5581C25.6233 21.5203 22.9512 18.8278 22.9248 15.1703Z" fill="white"/>
<defs>
<linearGradient id="paint0_linear_457_45639" x1="29.1762" y1="0" x2="29.1762" y2="54.5958" gradientUnits="userSpaceOnUse">
<stop stop-color="#0BB893"/>
<stop offset="1" stop-color="#5435DB"/>
</linearGradient>
<linearGradient id="paint1_linear_457_45639" x1="29.1762" y1="0" x2="29.1762" y2="54.5958" gradientUnits="userSpaceOnUse">
<stop stop-color="#07BE8F"/>
<stop offset="1" stop-color="#5237D9"/>
</linearGradient>
<linearGradient id="paint2_linear_457_45639" x1="28.8006" y1="0" x2="28.8006" y2="54.5958" gradientUnits="userSpaceOnUse">
<stop stop-color="#5A2AE0"/>
<stop offset="1" stop-color="#07BE8F"/>
</linearGradient>
</defs>
</svg>
