<svg width="276" height="55" viewBox="0 0 276 55" fill="none" xmlns="http://www.w3.org/2000/svg">
<path d="M64.9277 41.7835V16.8147H74.9509C76.7582 16.8147 78.3871 17.1119 79.8377 17.7064C81.312 18.3009 82.5724 19.157 83.6187 20.2747C84.6888 21.3923 85.4973 22.7121 86.0442 24.234C86.6149 25.7559 86.9003 27.4443 86.9003 29.2991C86.9003 31.1539 86.6149 32.8542 86.0442 34.3999C85.4973 35.9218 84.7007 37.2416 83.6543 38.3592C82.608 39.4531 81.3477 40.2973 79.8733 40.8918C78.399 41.4863 76.7582 41.7835 74.9509 41.7835H64.9277ZM69.5648 38.1809L69.2081 37.5031H74.7726C75.9378 37.5031 76.9722 37.3129 77.8758 36.9324C78.8033 36.5519 79.588 36.005 80.23 35.2916C80.8721 34.5782 81.3596 33.7222 81.6925 32.7234C82.0254 31.7009 82.1919 30.5594 82.1919 29.2991C82.1919 28.0388 82.0254 26.9092 81.6925 25.9105C81.3596 24.8879 80.8602 24.02 80.1944 23.3066C79.5523 22.5932 78.7795 22.0463 77.8758 21.6658C76.9722 21.2853 75.9378 21.0951 74.7726 21.0951H69.1011L69.5648 20.4887V38.1809Z" fill="url(#paint0_linear_429_55850)"/>
<path d="M91.1391 41.7835V22.9856H95.4552L95.5265 28.9781L94.9201 27.6226C95.1817 26.6714 95.6335 25.8154 96.2756 25.0544C96.9176 24.2935 97.6548 23.699 98.4871 23.2709C99.3432 22.8191 100.235 22.5932 101.162 22.5932C101.567 22.5932 101.947 22.6289 102.304 22.7002C102.684 22.7715 102.993 22.8548 103.231 22.9499L102.054 27.7653C101.792 27.6226 101.471 27.5037 101.091 27.4086C100.711 27.3135 100.33 27.2659 99.9496 27.2659C99.3551 27.2659 98.7843 27.3848 98.2374 27.6226C97.7142 27.8366 97.2505 28.1458 96.8463 28.55C96.442 28.9543 96.121 29.4299 95.8832 29.9768C95.6692 30.5 95.5622 31.0945 95.5622 31.7603V41.7835H91.1391Z" fill="url(#paint1_linear_429_55850)"/>
<path d="M114.162 42.1402C112.188 42.1402 110.44 41.7241 108.918 40.8918C107.42 40.0595 106.243 38.9299 105.387 37.5031C104.555 36.0526 104.139 34.3999 104.139 32.545C104.139 31.0707 104.376 29.7271 104.852 28.5144C105.328 27.3016 105.981 26.2553 106.814 25.3754C107.67 24.4718 108.68 23.7822 109.846 23.3066C111.035 22.8072 112.331 22.5575 113.734 22.5575C114.97 22.5575 116.124 22.7953 117.194 23.2709C118.264 23.7465 119.191 24.4005 119.976 25.2328C120.761 26.0413 121.355 27.0162 121.759 28.1577C122.187 29.2753 122.39 30.5 122.366 31.8317L122.33 33.3655H107.099L106.279 30.3692H118.656L118.085 30.9756V30.1908C118.014 29.4537 117.776 28.8116 117.372 28.2647C116.968 27.694 116.445 27.254 115.803 26.9449C115.184 26.612 114.495 26.4455 113.734 26.4455C112.568 26.4455 111.582 26.6714 110.773 27.1233C109.988 27.5751 109.394 28.229 108.99 29.0851C108.585 29.9174 108.383 30.9637 108.383 32.224C108.383 33.4368 108.633 34.495 109.132 35.3986C109.655 36.3023 110.381 37.0038 111.308 37.5031C112.259 37.9787 113.365 38.2165 114.625 38.2165C115.505 38.2165 116.314 38.0739 117.051 37.7885C117.788 37.5031 118.585 36.9919 119.441 36.2547L121.617 39.2866C120.975 39.8811 120.237 40.3924 119.405 40.8204C118.597 41.2247 117.741 41.5457 116.837 41.7835C115.933 42.0213 115.042 42.1402 114.162 42.1402Z" fill="url(#paint2_linear_429_55850)"/>
<path d="M133.35 42.1402C131.804 42.1402 130.401 41.7122 129.141 40.8561C127.88 40 126.87 38.8348 126.109 37.3605C125.348 35.8861 124.967 34.2096 124.967 32.331C124.967 30.4524 125.348 28.7759 126.109 27.3016C126.87 25.8273 127.904 24.6739 129.212 23.8416C130.52 23.0093 131.994 22.5932 133.635 22.5932C134.586 22.5932 135.454 22.7359 136.239 23.0212C137.024 23.2828 137.713 23.6633 138.308 24.1627C138.902 24.662 139.39 25.2328 139.77 25.8748C140.175 26.5169 140.448 27.2065 140.591 27.9437L139.628 27.694V22.9856H144.051V41.7835H139.592V37.2891L140.626 37.1108C140.46 37.7528 140.151 38.383 139.699 39.0013C139.271 39.5958 138.724 40.1308 138.058 40.6064C137.416 41.0582 136.691 41.4268 135.882 41.7122C135.098 41.9975 134.253 42.1402 133.35 42.1402ZM134.563 38.2522C135.585 38.2522 136.489 38.0025 137.273 37.5031C138.058 37.0038 138.665 36.3142 139.093 35.4343C139.544 34.5307 139.77 33.4962 139.77 32.331C139.77 31.1896 139.544 30.179 139.093 29.2991C138.665 28.4192 138.058 27.7296 137.273 27.2303C136.489 26.7309 135.585 26.4812 134.563 26.4812C133.54 26.4812 132.636 26.7309 131.852 27.2303C131.091 27.7296 130.496 28.4192 130.068 29.2991C129.64 30.179 129.426 31.1896 129.426 32.331C129.426 33.4962 129.64 34.5307 130.068 35.4343C130.496 36.3142 131.091 37.0038 131.852 37.5031C132.636 38.0025 133.54 38.2522 134.563 38.2522Z" fill="url(#paint3_linear_429_55850)"/>
<path d="M149.066 41.7835V22.9856H153.382L153.453 26.7666L152.74 27.0519C152.954 26.4336 153.275 25.8629 153.703 25.3398C154.131 24.7928 154.642 24.3291 155.237 23.9486C155.831 23.5444 156.461 23.2352 157.127 23.0212C157.793 22.7834 158.471 22.6645 159.16 22.6645C160.183 22.6645 161.087 22.831 161.871 23.1639C162.68 23.473 163.346 23.9724 163.869 24.662C164.416 25.3517 164.82 26.2315 165.082 27.3016L164.404 27.1589L164.689 26.5882C164.951 26.0175 165.319 25.5062 165.795 25.0544C166.271 24.5788 166.806 24.1627 167.4 23.806C167.995 23.4255 168.613 23.1401 169.255 22.9499C169.921 22.7597 170.575 22.6645 171.217 22.6645C172.644 22.6645 173.833 22.9499 174.784 23.5206C175.735 24.0913 176.448 24.9593 176.924 26.1245C177.4 27.2897 177.637 28.7284 177.637 30.4405V41.7835H173.214V30.7259C173.214 29.7747 173.084 28.99 172.822 28.3717C172.584 27.7534 172.204 27.3016 171.681 27.0162C171.181 26.7071 170.551 26.5525 169.79 26.5525C169.196 26.5525 168.625 26.6595 168.078 26.8736C167.555 27.0638 167.103 27.3492 166.722 27.7296C166.342 28.0863 166.045 28.5025 165.831 28.9781C165.617 29.4537 165.51 29.9768 165.51 30.5475V41.7835H161.087V30.6902C161.087 29.7866 160.956 29.0375 160.694 28.443C160.433 27.8248 160.052 27.361 159.553 27.0519C159.053 26.719 158.447 26.5525 157.734 26.5525C157.139 26.5525 156.58 26.6595 156.057 26.8736C155.534 27.0638 155.082 27.3373 154.702 27.694C154.321 28.0507 154.024 28.4668 153.81 28.9424C153.596 29.418 153.489 29.9412 153.489 30.5119V41.7835H149.066Z" fill="url(#paint4_linear_429_55850)"/>
<path d="M188.786 42.1402C187.121 42.1402 185.623 41.8667 184.291 41.3198C182.984 40.7491 181.913 39.9406 181.081 38.8943L183.935 36.4331C184.648 37.2416 185.445 37.8242 186.325 38.1809C187.204 38.5376 188.132 38.7159 189.107 38.7159C189.511 38.7159 189.868 38.6684 190.177 38.5732C190.51 38.4781 190.795 38.3354 191.033 38.1452C191.271 37.955 191.449 37.7409 191.568 37.5031C191.711 37.2416 191.782 36.9562 191.782 36.6471C191.782 36.0764 191.568 35.6245 191.14 35.2916C190.902 35.1252 190.522 34.9468 189.999 34.7566C189.499 34.5663 188.845 34.3761 188.037 34.1859C186.753 33.8529 185.683 33.4725 184.826 33.0444C183.97 32.5926 183.305 32.0932 182.829 31.5463C182.425 31.0945 182.116 30.5832 181.902 30.0125C181.711 29.4418 181.616 28.8235 181.616 28.1577C181.616 27.3254 181.795 26.5763 182.151 25.9105C182.532 25.2209 183.043 24.6264 183.685 24.127C184.327 23.6276 185.076 23.2471 185.932 22.9856C186.788 22.724 187.68 22.5932 188.607 22.5932C189.559 22.5932 190.474 22.7121 191.354 22.9499C192.258 23.1877 193.09 23.5325 193.851 23.9843C194.636 24.4124 195.301 24.9355 195.848 25.5538L193.423 28.229C192.971 27.801 192.472 27.4205 191.925 27.0876C191.402 26.7547 190.867 26.4931 190.32 26.3028C189.773 26.0888 189.261 25.9818 188.786 25.9818C188.334 25.9818 187.93 26.0294 187.573 26.1245C187.216 26.1958 186.919 26.3147 186.681 26.4812C186.444 26.6477 186.253 26.8617 186.111 27.1233C185.992 27.361 185.932 27.6464 185.932 27.9793C185.956 28.2647 186.027 28.5381 186.146 28.7997C186.289 29.0375 186.479 29.2397 186.717 29.4061C186.979 29.5726 187.371 29.7628 187.894 29.9768C188.417 30.1908 189.095 30.393 189.927 30.5832C191.092 30.8924 192.067 31.2372 192.852 31.6176C193.637 31.9981 194.255 32.438 194.707 32.9374C195.159 33.3655 195.48 33.8648 195.67 34.4355C195.86 35.0063 195.955 35.6364 195.955 36.326C195.955 37.4437 195.634 38.4424 194.992 39.3223C194.374 40.2022 193.518 40.8918 192.424 41.3911C191.354 41.8905 190.141 42.1402 188.786 42.1402Z" fill="url(#paint5_linear_429_55850)"/>
<path d="M200.391 41.7835V16.8147H217.798V21.9868H206.277V36.6114H218.155V41.7835H200.391ZM203.245 31.5463V26.6239H216.193V31.5463H203.245Z" fill="url(#paint6_linear_429_55850)"/>
<path d="M223.381 41.7835V16.8147H228.803L237.899 31.6176L234.011 31.582L243.214 16.8147H248.421V41.7835H242.536V34.0075C242.536 31.8673 242.583 29.9412 242.679 28.229C242.798 26.5169 242.988 24.8166 243.249 23.1282L243.927 24.9831L237.007 35.7197H234.653L227.876 25.0544L228.553 23.1282C228.815 24.7215 228.993 26.3623 229.088 28.0507C229.207 29.7153 229.267 31.7009 229.267 34.0075V41.7835H223.381Z" fill="url(#paint7_linear_429_55850)"/>
<path d="M254.697 41.7835V16.8147H265.933C267.526 16.8147 268.965 17.1595 270.249 17.8491C271.557 18.5387 272.579 19.4899 273.316 20.7027C274.054 21.8917 274.422 23.2471 274.422 24.769C274.422 26.3385 274.054 27.7534 273.316 29.0137C272.579 30.2503 271.569 31.2253 270.284 31.9387C269 32.6521 267.55 33.0088 265.933 33.0088H260.475V41.7835H254.697ZM268.537 41.7835L262.187 30.5119L268.394 29.6201L275.457 41.7835H268.537ZM260.475 28.3717H265.398C266.016 28.3717 266.551 28.2409 267.003 27.9793C267.478 27.694 267.835 27.3016 268.073 26.8022C268.335 26.3028 268.465 25.7321 268.465 25.0901C268.465 24.448 268.323 23.8892 268.037 23.4136C267.752 22.9142 267.336 22.5337 266.789 22.2722C266.266 22.0106 265.624 21.8798 264.863 21.8798H260.475V28.3717Z" fill="url(#paint8_linear_429_55850)"/>
<path d="M0.388672 30.3896C0.388672 13.973 13.6969 0.664795 30.1134 0.664795H53.8933V24.94C53.8933 41.3566 40.585 54.6648 24.1685 54.6648H0.388672V30.3896Z" fill="url(#paint9_linear_429_55850)"/>
<path d="M4.59968 30.3896C4.59968 13.973 17.9079 0.664795 34.3245 0.664795H58.1043V24.94C58.1043 41.3566 44.796 54.6648 28.3795 54.6648H4.59968V30.3896Z" fill="url(#paint10_linear_429_55850)"/>
<path d="M2.12262 30.3896C2.12262 13.973 15.4309 0.664795 31.8474 0.664795H55.6272V24.94C55.6272 41.3566 42.319 54.6648 25.9024 54.6648H2.12262V30.3896Z" fill="url(#paint11_linear_429_55850)"/>
<path fill-rule="evenodd" clip-rule="evenodd" d="M17.7558 26.5019C17.765 23.617 19.9712 21.4904 22.7287 21.7037C23.3391 21.7508 24.0116 22.0846 24.495 22.4816C25.8398 23.5867 27.1414 24.7528 28.377 25.9784C29.0139 26.6105 29.3794 26.4568 29.9212 25.902C30.9858 24.8119 32.1418 23.8115 33.2117 22.726C34.9054 21.0075 37.4319 21.6299 38.9097 22.8622C40.6914 24.348 41.026 26.715 39.6445 28.4652C38.8256 29.5028 37.7989 30.3784 36.848 31.3088C34.4861 33.6198 32.1109 35.9172 29.7491 38.2281C29.3874 38.5824 29.0999 38.915 28.5785 38.406C25.3287 35.233 22.0564 32.083 18.8039 28.913C18.1031 28.23 17.5708 27.4471 17.7558 26.5019Z" fill="white"/>
<path fill-rule="evenodd" clip-rule="evenodd" d="M19.7384 35.6655C18.9751 35.6655 18.2103 35.6952 17.4488 35.6604C13.9848 35.502 12.2174 33.6247 12.2188 30.1304C12.2199 27.8248 13.4159 26.0533 15.552 25.1928C16.5946 24.7731 16.8844 24.9643 16.7966 26.0497C16.6831 27.4493 17.226 28.6669 18.1504 29.5853C21.6006 33.0139 25.1383 36.3545 28.6303 39.7413C28.9991 40.0989 29.2396 40.0481 29.5783 39.7162C33.0784 36.2878 36.6045 32.8857 40.087 29.4392C41.1047 28.4319 41.5583 27.1341 41.3735 25.6962C41.2637 24.839 41.6532 24.8373 42.2478 25.0451C44.2987 25.7622 46.2001 27.3569 46.0176 30.8587C45.9116 32.8947 44.3389 34.9308 42.1484 35.5148C41.548 35.6749 40.8892 35.6394 40.2566 35.6499C38.793 35.6743 37.3286 35.6669 35.8647 35.6822C34.659 35.6946 34.5633 35.8132 34.5365 36.9806C34.4914 38.9474 34.5065 40.9212 34.3357 42.878C34.1785 44.683 32.1914 46.7559 30.5239 47.0953C28.0194 47.6052 25.713 46.6874 24.5235 44.8158C23.8985 43.8325 23.6227 42.8149 23.6467 41.6644C23.6813 40.0099 23.6322 38.3537 23.6645 36.6993C23.6796 35.92 23.4058 35.6122 22.6007 35.6655C21.6504 35.7284 20.6929 35.6803 19.7388 35.6803C19.7384 35.6755 19.7384 35.6705 19.7384 35.6655Z" fill="white"/>
<path fill-rule="evenodd" clip-rule="evenodd" d="M22.8935 15.5795C22.7924 12.5074 25.3697 9.57323 28.7903 9.47924C32.4432 9.37913 35.2993 12.1022 35.3249 15.5643C35.3497 18.9279 32.478 21.9359 28.9737 21.8976C25.5304 21.8602 22.9193 19.1971 22.8935 15.5795Z" fill="white"/>
<defs>
<linearGradient id="paint0_linear_429_55850" x1="243.391" y1="49.7101" x2="51.6665" y2="18.9945" gradientUnits="userSpaceOnUse">
<stop stop-color="#07BE8F"/>
<stop offset="1" stop-color="#5435DB"/>
</linearGradient>
<linearGradient id="paint1_linear_429_55850" x1="243.391" y1="49.7101" x2="51.6665" y2="18.9945" gradientUnits="userSpaceOnUse">
<stop stop-color="#07BE8F"/>
<stop offset="1" stop-color="#5435DB"/>
</linearGradient>
<linearGradient id="paint2_linear_429_55850" x1="243.391" y1="49.7101" x2="51.6665" y2="18.9945" gradientUnits="userSpaceOnUse">
<stop stop-color="#07BE8F"/>
<stop offset="1" stop-color="#5435DB"/>
</linearGradient>
<linearGradient id="paint3_linear_429_55850" x1="243.391" y1="49.7101" x2="51.6665" y2="18.9945" gradientUnits="userSpaceOnUse">
<stop stop-color="#07BE8F"/>
<stop offset="1" stop-color="#5435DB"/>
</linearGradient>
<linearGradient id="paint4_linear_429_55850" x1="243.391" y1="49.7101" x2="51.6665" y2="18.9945" gradientUnits="userSpaceOnUse">
<stop stop-color="#07BE8F"/>
<stop offset="1" stop-color="#5435DB"/>
</linearGradient>
<linearGradient id="paint5_linear_429_55850" x1="243.391" y1="49.7101" x2="51.6665" y2="18.9945" gradientUnits="userSpaceOnUse">
<stop stop-color="#07BE8F"/>
<stop offset="1" stop-color="#5435DB"/>
</linearGradient>
<linearGradient id="paint6_linear_429_55850" x1="243.391" y1="49.7101" x2="51.6665" y2="18.9945" gradientUnits="userSpaceOnUse">
<stop stop-color="#07BE8F"/>
<stop offset="1" stop-color="#5435DB"/>
</linearGradient>
<linearGradient id="paint7_linear_429_55850" x1="243.391" y1="49.7101" x2="51.6665" y2="18.9945" gradientUnits="userSpaceOnUse">
<stop stop-color="#07BE8F"/>
<stop offset="1" stop-color="#5435DB"/>
</linearGradient>
<linearGradient id="paint8_linear_429_55850" x1="243.391" y1="49.7101" x2="51.6665" y2="18.9945" gradientUnits="userSpaceOnUse">
<stop stop-color="#07BE8F"/>
<stop offset="1" stop-color="#5435DB"/>
</linearGradient>
<linearGradient id="paint9_linear_429_55850" x1="29.2465" y1="0.664795" x2="29.2465" y2="54.6648" gradientUnits="userSpaceOnUse">
<stop stop-color="#0BB893"/>
<stop offset="1" stop-color="#5435DB"/>
</linearGradient>
<linearGradient id="paint10_linear_429_55850" x1="29.2465" y1="0.664795" x2="29.2465" y2="54.6648" gradientUnits="userSpaceOnUse">
<stop stop-color="#07BE8F"/>
<stop offset="1" stop-color="#5237D9"/>
</linearGradient>
<linearGradient id="paint11_linear_429_55850" x1="28.8749" y1="0.664795" x2="28.8749" y2="54.6648" gradientUnits="userSpaceOnUse">
<stop stop-color="#5A2AE0"/>
<stop offset="1" stop-color="#07BE8F"/>
</linearGradient>
</defs>
</svg>
